<?xml version="1.0"?>
<svg xmlns="http://www.w3.org/2000/svg" viewBox="0 0 64 64" width="512px" height="512px" class=""><g><g id="outline"><path d="M53,32V28a1,1,0,0,0-1-1H12a1,1,0,0,0-1,1v4a1,1,0,0,0,1,1h3.051A16.873,16.873,0,0,0,18,41.622V61a1,1,0,0,0,1,1h4a1,1,0,0,0,1-1V57H40v4a1,1,0,0,0,1,1h4a1,1,0,0,0,1-1V41.622A16.873,16.873,0,0,0,48.949,33H52A1,1,0,0,0,53,32ZM44,60H42V56a1,1,0,0,0-1-1H23a1,1,0,0,0-1,1v4H20V44.029a17.071,17.071,0,0,0,2,1.688V52a1,1,0,0,0,1,1H41a1,1,0,0,0,1-1V45.717a17.071,17.071,0,0,0,2-1.688ZM24,51V46.992a16.94,16.94,0,0,0,16,0V51ZM46.682,35H38v2h8.134a14.988,14.988,0,0,1-28.268,0H28V35H17.318a14.955,14.955,0,0,1-.285-2H46.967A14.955,14.955,0,0,1,46.682,35ZM51,31H13V29H51Z" data-original="#000000" class="active-path" data-old_color="#ffffff" fill="#ffffff"/><polygon points="32.293 13.707 33.707 12.293 31.414 10 35.414 6 31.707 2.293 30.293 3.707 32.586 6 28.586 10 32.293 13.707" data-original="#000000" class="active-path" data-old_color="#ffffff" fill="#ffffff"/><polygon points="24.293 13.707 25.707 12.293 23.414 10 27.414 6 23.707 2.293 22.293 3.707 24.586 6 20.586 10 24.293 13.707" data-original="#000000" class="active-path" data-old_color="#ffffff" fill="#ffffff"/><polygon points="40.293 13.707 41.707 12.293 39.414 10 43.414 6 39.707 2.293 38.293 3.707 40.586 6 36.586 10 40.293 13.707" data-original="#000000" class="active-path" data-old_color="#ffffff" fill="#ffffff"/><path d="M52,15H46a1,1,0,0,0-1,1v3H42.9a5,5,0,0,0-9.8,0H31V16a1,1,0,0,0-1-1H24a1,1,0,0,0-1,1v3H20.9a5,5,0,0,0-9.8,0H8a1,1,0,0,0,0,2h3.1a5,5,0,0,0,9.8,0H23v3a1,1,0,0,0,1,1h6a1,1,0,0,0,1-1V21h2.1a5,5,0,0,0,9.8,0H45v3a1,1,0,0,0,1,1h6a1,1,0,0,0,1-1V21h4a1,1,0,0,0,0-2H53V16A1,1,0,0,0,52,15ZM16,23a3,3,0,1,1,3-3A3,3,0,0,1,16,23Zm13,0H25V17h4Zm9,0a3,3,0,1,1,3-3A3,3,0,0,1,38,23Zm13,0H47V17h4Z" data-original="#000000" class="active-path" data-old_color="#ffffff" fill="#ffffff"/><rect x="30" y="35" width="2" height="2" data-original="#000000" class="active-path" data-old_color="#ffffff" fill="#ffffff"/><rect x="34" y="35" width="2" height="2" data-original="#000000" class="active-path" data-old_color="#ffffff" fill="#ffffff"/></g></g> </svg>
