<?xml version="1.0"?>
<svg xmlns="http://www.w3.org/2000/svg" height="512px" viewBox="-30 0 512 512" width="512px"><path d="m30 377h60v45h-60zm0 0" fill="#FFFFFF"/><path d="m287.046875 377-40.800781 45h85.753906v-45zm0 0" fill="#FFFFFF"/><path d="m362 377h60v45h-60zm0 0" fill="#FFFFFF"/><path d="m120 377v45h85.753906l-40.800781-45zm0 0" fill="#FFFFFF"/><path d="m60 512h332c33 0 60-27 60-60h-452c0 33 27 60 60 60zm0 0" fill="#FFFFFF"/><path d="m30 287c-16.542969 0-30 13.457031-30 30s13.457031 30 30 30h107.753906l-54.402344-60zm0 0" fill="#FFFFFF"/><path d="m422 287h-53.351562l-54.402344 60h107.753906c16.542969 0 30-13.457031 30-30s-13.457031-30-30-30zm0 0" fill="#FFFFFF"/><path d="m407 257v-30h-362v30h51.648438l129.351562 142.667969 129.351562-142.667969zm0 0" fill="#FFFFFF"/><path d="m58.289062 65.3125c38.589844 43.542969 99.40625 71.6875 167.710938 71.6875s129.121094-28.144531 167.710938-71.6875c-41.441407-40.042969-101.351563-65.3125-167.710938-65.3125s-126.269531 25.269531-167.710938 65.3125zm0 0" fill="#FFFFFF"/><path d="m452 197c0-40.375-14.128906-78.007812-38.277344-109.347656-5.667968 6.171875-11.746094 12.113281-18.253906 17.785156-45.542969 39.699219-105.726562 61.5625-169.46875 61.5625s-123.925781-21.863281-169.46875-61.5625c-6.507812-5.671875-12.585938-11.613281-18.253906-17.785156-24.148438 31.339844-38.277344 68.972656-38.277344 109.347656zm0 0" fill="#FFFFFF"/></svg>
