<?xml version="1.0" encoding="utf-8"?>
<!-- Generator: Adobe Illustrator 16.0.0, SVG Export Plug-In . SVG Version: 6.00 Build 0)  -->
<!DOCTYPE svg PUBLIC "-//W3C//DTD SVG 1.1//EN" "http://www.w3.org/Graphics/SVG/1.1/DTD/svg11.dtd">
<svg version="1.1" id="Layer_1" xmlns="http://www.w3.org/2000/svg" xmlns:xlink="http://www.w3.org/1999/xlink" x="0px" y="0px"
	 width="94.333px" height="29.334px" viewBox="-72.333 7 94.333 29.334" enable-background="new -72.333 7 94.333 29.334"
	 xml:space="preserve">
<g>
	<g>
		<path fill="#FF5F00" stroke="#FF5F00" stroke-width="0.5" stroke-miterlimit="10" d="M-68.787,18.347
			c0-4.423,3.234-7.591,7.657-7.591c4.445,0,7.679,3.168,7.679,7.591s-3.234,7.591-7.679,7.591
			C-65.552,25.938-68.787,22.77-68.787,18.347z M-56.663,18.347c0-2.75-1.76-4.818-4.467-4.818s-4.445,2.068-4.445,4.818
			c0,2.729,1.738,4.818,4.445,4.818S-56.663,21.075-56.663,18.347z"/>
		<path fill="#FF5F00" stroke="#FF5F00" stroke-width="0.5" stroke-miterlimit="10" d="M-51.318,25.674V10.998h2.794v5.413
			c0.836-1.078,2.024-1.628,3.278-1.628c2.707,0,4.709,2.112,4.709,5.589c0,3.543-2.024,5.566-4.709,5.566
			c-1.276,0-2.442-0.571-3.278-1.628v1.364H-51.318z M-46.125,23.451c1.628,0,2.706-1.231,2.706-3.08s-1.078-3.103-2.706-3.103
			c-0.902,0-1.937,0.528-2.398,1.232v3.763C-48.062,22.945-47.028,23.451-46.125,23.451z"/>
		<path fill="#FF5F00" stroke="#FF5F00" stroke-width="0.5" stroke-miterlimit="10" d="M-39.108,20.349
			c0-3.08,2.266-5.566,5.501-5.566c3.168,0,5.325,2.376,5.325,5.853v0.616h-7.899c0.176,1.343,1.254,2.465,3.059,2.465
			c0.902,0,2.156-0.396,2.838-1.057l1.232,1.805c-1.056,0.968-2.729,1.474-4.379,1.474C-36.666,25.938-39.108,23.76-39.108,20.349z
			 M-33.607,17.005c-1.738,0-2.486,1.298-2.619,2.354h5.237C-31.055,18.347-31.759,17.005-33.607,17.005z"/>
		<path fill="#FF5F00" stroke="#FF5F00" stroke-width="0.5" stroke-miterlimit="10" d="M-18.955,25.674V24.31
			c-0.836,1.057-2.002,1.628-3.279,1.628c-2.684,0-4.708-2.023-4.708-5.566c0-3.477,2.002-5.589,4.708-5.589
			c1.254,0,2.442,0.55,3.279,1.628v-5.413h2.816v14.676H-18.955z M-18.955,22.241v-3.763c-0.462-0.704-1.475-1.21-2.42-1.21
			c-1.584,0-2.685,1.254-2.685,3.103c0,1.826,1.1,3.08,2.685,3.08C-20.43,23.451-19.417,22.945-18.955,22.241z"/>
		<path fill="#FF5F00" stroke="#FF5F00" stroke-width="0.5" stroke-miterlimit="10" d="M-13.72,24.134
			c0-0.969,0.814-1.782,1.782-1.782s1.782,0.813,1.782,1.782c0,0.968-0.814,1.782-1.782,1.782S-13.72,25.102-13.72,24.134z"/>
		<path fill="#FF5F00" stroke="#FF5F00" stroke-width="0.5" stroke-miterlimit="10" d="M-7.736,25.674V15.046h2.794v1.452
			c0.748-0.945,2.068-1.716,3.388-1.716v2.729c-0.198-0.044-0.462-0.066-0.77-0.066c-0.924,0-2.156,0.528-2.618,1.211v7.019H-7.736z
			"/>
		<path fill="#FF5F00" stroke="#FF5F00" stroke-width="0.5" stroke-miterlimit="10" d="M7.356,25.674v-1.342
			c-0.726,0.813-2.002,1.605-3.74,1.605c-2.333,0-3.433-1.275-3.433-3.344v-7.548h2.794v6.447c0,1.475,0.77,1.958,1.958,1.958
			c1.078,0,1.937-0.594,2.42-1.21v-7.195h2.794v10.628H7.356z"/>
		<path fill="#FF5F00" d="M-65.458,33.674l-1.152-1.675l-0.522,0.559v1.116h-1.143v-4.349h1.143v1.936l1.647-1.936h1.404
			l-1.719,1.972l1.773,2.377H-65.458z"/>
		<path fill="#FF5F00" d="M-63.794,31.495c0-1.233,0.864-2.277,2.296-2.277c1.44,0,2.305,1.044,2.305,2.277
			c0,1.242-0.864,2.287-2.305,2.287C-62.93,33.782-63.794,32.737-63.794,31.495z M-60.382,31.495c0-0.675-0.405-1.261-1.116-1.261
			c-0.711,0-1.107,0.586-1.107,1.261c0,0.685,0.396,1.27,1.107,1.27C-60.787,32.765-60.382,32.18-60.382,31.495z"/>
		<path fill="#FF5F00" d="M-54.991,30.325h-2.215v3.349h-1.143v-4.349h3.358V30.325z"/>
		<path fill="#FF5F00" d="M-55.091,32.72c0.351-0.063,0.558-0.234,0.693-1.287l0.279-2.107h3.52v3.35h0.477v2.106h-1.143v-1.107
			h-2.674v1.107h-1.152V32.72z M-53.254,31.504c-0.063,0.531-0.234,0.919-0.504,1.171h2.017v-2.35h-1.377L-53.254,31.504z"/>
		<path fill="#FF5F00" d="M-46.792,33.674v-0.45c-0.297,0.352-0.81,0.559-1.377,0.559c-0.693,0-1.512-0.469-1.512-1.44
			c0-1.018,0.819-1.404,1.512-1.404c0.576,0,1.089,0.188,1.377,0.53v-0.585c0-0.441-0.378-0.729-0.954-0.729
			c-0.468,0-0.9,0.172-1.27,0.514l-0.432-0.766c0.531-0.468,1.215-0.684,1.9-0.684c0.99,0,1.899,0.396,1.899,1.647v2.809H-46.792z
			 M-46.792,32.63v-0.54c-0.189-0.253-0.549-0.379-0.918-0.379c-0.45,0-0.819,0.234-0.819,0.657c0,0.405,0.369,0.64,0.819,0.64
			C-47.341,33.008-46.981,32.882-46.792,32.63z"/>
		<path fill="#FF5F00" d="M-39.52,33.674l-0.99-1.468l-0.999,1.468h-1.27l1.54-2.232l-1.45-2.116h1.279l0.9,1.342l0.892-1.342h1.278
			l-1.458,2.116l1.558,2.232H-39.52z"/>
		<path fill="#FF5F00" d="M-38.26,31.495c0-1.233,0.864-2.277,2.296-2.277c1.44,0,2.305,1.044,2.305,2.277
			c0,1.242-0.864,2.287-2.305,2.287C-37.396,33.782-38.26,32.737-38.26,31.495z M-34.848,31.495c0-0.675-0.405-1.261-1.116-1.261
			c-0.711,0-1.107,0.586-1.107,1.261c0,0.685,0.396,1.27,1.107,1.27C-35.253,32.765-34.848,32.18-34.848,31.495z"/>
		<path fill="#FF5F00" d="M-31.807,29.325v1.18c0,0.612,0.315,0.811,0.918,0.811c0.396,0,0.675-0.072,0.874-0.171v-1.819h1.152
			v4.349h-1.152v-1.611c-0.279,0.153-0.729,0.27-1.27,0.27c-1.215,0-1.666-0.531-1.666-1.431v-1.576H-31.807z"/>
		<path fill="#FF5F00" d="M-28.018,31.495c0-1.261,0.927-2.277,2.25-2.277c1.296,0,2.179,0.972,2.179,2.395v0.252h-3.232
			c0.072,0.549,0.513,1.009,1.251,1.009c0.369,0,0.882-0.162,1.161-0.433l0.504,0.738c-0.432,0.396-1.116,0.604-1.792,0.604
			C-27.019,33.782-28.018,32.891-28.018,31.495z M-25.768,30.127c-0.711,0-1.017,0.531-1.071,0.963h2.143
			C-24.723,30.676-25.011,30.127-25.768,30.127z"/>
		<path fill="#FF5F00" d="M-21.961,33.674v-3.349h-1.215v-1h3.583v1h-1.216v3.349H-21.961z"/>
		<path fill="#FF5F00" d="M-19.153,31.495c0-1.332,0.963-2.277,2.305-2.277c0.891,0,1.432,0.387,1.72,0.783l-0.748,0.702
			c-0.207-0.307-0.522-0.469-0.918-0.469c-0.693,0-1.18,0.505-1.18,1.261s0.486,1.27,1.18,1.27c0.396,0,0.711-0.18,0.918-0.468
			l0.748,0.692c-0.288,0.405-0.829,0.793-1.72,0.793C-18.19,33.782-19.153,32.837-19.153,31.495z"/>
		<path fill="#FF5F00" d="M-14.527,33.674l1.008-1.575c-0.496-0.126-0.963-0.576-0.963-1.351c0-0.766,0.54-1.423,1.503-1.423h2.638
			v4.349h-1.144V32.18h-0.891l-0.855,1.494H-14.527z M-11.485,31.225v-0.936h-1.314c-0.315,0-0.522,0.188-0.522,0.459
			c0,0.279,0.198,0.477,0.522,0.477H-11.485z"/>
		<path fill="#FF5F00" d="M-7.201,31.495c0-1.261,0.927-2.277,2.25-2.277c1.296,0,2.179,0.972,2.179,2.395v0.252h-3.232
			c0.072,0.549,0.513,1.009,1.251,1.009c0.369,0,0.882-0.162,1.161-0.433l0.504,0.738c-0.432,0.396-1.116,0.604-1.792,0.604
			C-6.202,33.782-7.201,32.891-7.201,31.495z M-4.951,30.127c-0.711,0-1.017,0.531-1.071,0.963h2.143
			C-3.906,30.676-4.194,30.127-4.951,30.127z"/>
		<path fill="#FF5F00" d="M-2.224,31.495c0-1.332,0.963-2.277,2.305-2.277c0.891,0,1.432,0.387,1.72,0.783l-0.748,0.702
			c-0.207-0.307-0.522-0.469-0.918-0.469c-0.693,0-1.18,0.505-1.18,1.261s0.486,1.27,1.18,1.27c0.396,0,0.711-0.18,0.918-0.468
			L1.8,32.989c-0.288,0.405-0.829,0.793-1.72,0.793C-1.261,33.782-2.224,32.837-2.224,31.495z"/>
		<path fill="#FF5F00" d="M3.347,33.674v-3.349H2.131v-1h3.583v1H4.499v3.349H3.347z"/>
		<path fill="#FF5F00" d="M7.577,29.325v1.495h1.485c1.008,0,1.513,0.657,1.513,1.422c0,0.774-0.54,1.432-1.513,1.432H6.434v-4.349
			H7.577z M7.577,31.774v0.937h1.314c0.324,0,0.513-0.198,0.513-0.469c0-0.27-0.189-0.468-0.513-0.468H7.577z"/>
	</g>
</g>
</svg>
