<?xml version="1.0"?>
<svg xmlns="http://www.w3.org/2000/svg" height="512px" viewBox="0 0 512.00026 512" width="512px"><path d="m179.851562 332.148438c-53.816406-53.8125-83.453124-125.363282-83.453124-201.46875v-11.160157l-85.710938 25.714844c-6.34375 1.902344-10.6875 7.757813-10.6875 14.382813 0 86.042968 31.679688 177.644531 103.210938 249.171874 61.703124 61.707032 149.019531 103.210938 249.1875 103.210938 6.625 0 12.464843-4.34375 14.367187-10.691406l25.714844-85.707032h-11.160157c-76.105468 0-147.65625-29.636718-201.46875-83.453124zm0 0" fill="#FFFFFF"/><path d="m320.265625 271c-9.445313 0-17.132813 7.6875-17.132813 17.132812 0 9.445313 7.6875 17.132813 17.132813 17.132813 9.449219 0 17.136719-7.6875 17.136719-17.132813 0-9.445312-7.6875-17.132812-17.136719-17.132812zm0 0" fill="#FFFFFF"/><path d="m223.867188 174.601562c-9.449219 0-17.132813 7.683594-17.132813 17.132813 0 9.445313 7.683594 17.132813 17.132813 17.132813 9.445312 0 17.132812-7.6875 17.132812-17.132813 0-9.449219-7.6875-17.132813-17.132812-17.132813zm0 0" fill="#FFFFFF"/><path d="m368.46875 126.398438c-9.449219 0-17.136719 7.6875-17.136719 17.132812 0 9.449219 7.6875 17.132812 17.136719 17.132812 9.445312 0 17.132812-7.683593 17.132812-17.132812 0-9.445312-7.6875-17.132812-17.132812-17.132812zm0 0" fill="#FFFFFF"/><path d="m507.605469 4.394531c-3.902344-3.902343-9.632813-5.347656-14.917969-3.761719l-366.289062 109.886719v20.160157c0 68.09375 26.515624 132.109374 74.664062 180.257812 48.148438 48.144531 112.164062 74.664062 180.257812 74.664062h20.160157l109.886719-366.292968c1.585937-5.285156.140624-11.011719-3.761719-14.914063zm-283.738281 234.472657c-25.988282 0-47.132813-21.144532-47.132813-47.132813s21.144531-47.132813 47.132813-47.132813c25.988281 0 47.132812 21.140626 47.132812 47.132813 0 25.988281-21.144531 47.132813-47.132812 47.132813zm96.398437 96.398437c-25.988281 0-47.132813-21.144531-47.132813-47.132813 0-25.988281 21.144532-47.132812 47.132813-47.132812 25.992187 0 47.136719 21.144531 47.136719 47.132812 0 25.988282-21.144532 47.132813-47.136719 47.132813zm48.203125-144.597656c-25.992188 0-47.136719-21.144531-47.136719-47.132813 0-25.992187 21.144531-47.136718 47.136719-47.136718 25.988281 0 47.132812 21.144531 47.132812 47.132812 0 25.992188-21.144531 47.136719-47.132812 47.136719zm0 0" fill="#FFFFFF"/></svg>
