<?xml version="1.0"?>
<svg xmlns="http://www.w3.org/2000/svg" height="512px" viewBox="0 -8 512.001 512" width="512px"><path d="m42.621094 188.871094h76.339844l-39.964844-92.128906 28.257812-12.257813 45.28125 104.386719h17.609375c-.246093-2.75-.320312-5.53125-.207031-8.335938.535156-13.859375 5.429688-26.859375 14.148438-37.589844l.566406-.675781c1.222656-1.46875 2.515625-2.875 3.871094-4.222656-16.941407-12.851563-27.898438-33.203125-27.898438-56.058594 0-9.425781 1.871094-18.429687 5.246094-26.644531-10.359375-10.296875-23.019532-19.671875-37.917969-28.050781-31.53125-17.742188-61.953125-24.601563-63.238281-24.890625l-10.894532-2.402344-5.6875 9.601562c-1.222656 2.054688-29.867187 51.058594-30.492187 103.917969-.226563 18.171875 2.914063 34.898438 9.339844 49.695313 3.90625 9.003906 9.128906 17.566406 15.640625 25.65625zm0 0" fill="#FFFFFF"/><path d="m221.882812 120.480469c1.21875-.238281 2.453126-.433594 3.683594-.585938 6.839844-14.496093 18.972656-25.800781 33.554688-31.808593-.914063-4.570313-1.394532-9.292969-1.394532-14.128907 0-6.4375.851563-12.691406 2.453126-18.625-7.25-7.925781-17.660157-12.894531-29.203126-12.894531-21.804687 0-39.546874 17.742188-39.546874 39.550781 0 18.675781 13.015624 34.375 30.453124 38.492188zm0 0" fill="#FFFFFF"/><path d="m301.21875 85.949219c10.78125 3.226562 20.441406 9.261719 28.050781 17.292969 2.976563-.84375 6.027344-1.457032 9.117188-1.859376 6.621093-14.035156 18.203125-25.09375 32.179687-31.234374-1.921875-20.894532-19.539062-37.300782-40.925781-37.300782-14.714844 0-27.640625 7.761719-34.910156 19.414063-3.933594 6.304687-6.203125 13.738281-6.203125 21.695312 0 3.339844.398437 6.582031 1.148437 9.683594 3.953125.410156 7.816407 1.191406 11.542969 2.308594zm0 0" fill="#FFFFFF"/><path d="m365.882812 115.324219c-.6875 1.574219-1.253906 3.195312-1.683593 4.886719l-2.886719 11.253906c2.035156 1.152344 3.996094 2.421875 5.875 3.789062 16.519531 12.011719 26.984375 31.746094 26.242188 53.617188h74.75c4.445312-5.484375 7.011718-12.25 7.28125-19.363282.335937-8.769531-2.742188-17.128906-8.699219-23.566406-5.953125-6.4375-14.054688-10.164062-22.8125-10.503906h-.105469c-.226562 0-.449219 0-.6875-.007812l-12.679688-.238282-2.195312-12.503906c-2.589844-14.777344-15.15625-25.996094-30.085938-27.023438-.316406-.023437-.636718-.042968-.953124-.050781-8.511719-.339843-16.582032 2.699219-22.722657 8.015625-3.664062 3.164063-6.652343 7.136719-8.636719 11.6875zm0 0" fill="#FFFFFF"/><path d="m251.378906 138.726562-2.925781 11.414063-.277344 1.078125s-3.335937-.246094-3.347656-.246094l-10.121094-.757812c-4.035156-.15625-7.988281.429687-11.695312 1.671875-5.78125 1.941406-10.976563 5.503906-14.992188 10.453125l-.296875.371094c-4.3125 5.453124-6.734375 12.023437-7.011718 19.027343-.09375 2.421875.070312 4.804688.492187 7.132813h161.382813c.03125-.285156.042968-.5625.050781-.851563.710937-18.078125-13.429688-33.359375-31.507813-34.066406h-.105468c-.226563 0-.453126 0-.6875-.011719l-12.679688-.234375s-.667969-3.789062-.6875-3.910156c-1.25-7.097656-2.09375-13.714844-5.984375-20.023437-3.515625-5.699219-8.699219-10.40625-14.84375-13.0625-18.089844-7.835938-39.949219 2.960937-44.761719 22.015624zm0 0" fill="#FFFFFF"/><path d="m38.523438 340.253906c23.101562 36.871094 55.136718 67.242188 93.035156 88.300782v68.382812h248.882812v-68.382812c37.898438-21.058594 69.933594-51.429688 93.035156-88.300782 9.746094-15.554687 17.734376-32.035156 23.882813-49.148437h-482.71875c6.152344 17.117187 14.140625 33.59375 23.882813 49.148437zm0 0" fill="#FFFFFF"/><path d="m0 219.675781c.8125 13.726563 2.730469 27.3125 5.710938 40.628907h500.582031c2.976562-13.316407 4.898437-26.902344 5.707031-40.628907zm0 0" fill="#FFFFFF"/></svg>
