<?xml version="1.0" encoding="iso-8859-1"?>
<!-- Generator: Adobe Illustrator 16.0.0, SVG Export Plug-In . SVG Version: 6.00 Build 0)  -->
<!DOCTYPE svg PUBLIC "-//W3C//DTD SVG 1.1//EN" "http://www.w3.org/Graphics/SVG/1.1/DTD/svg11.dtd">
<svg xmlns="http://www.w3.org/2000/svg" xmlns:xlink="http://www.w3.org/1999/xlink" version="1.1" id="Capa_1" x="0px" y="0px" width="512px" height="512px" viewBox="0 0 263.652 263.652" style="enable-background:new 0 0 263.652 263.652;" xml:space="preserve">
<g>
	<g>
		<g id="Layer_5_39_">
			<g>
				<path d="M263.607,87.275c2.18-39.461-85.908-72.109-131.781-72.109c-45.869,0-133.961,32.648-131.781,72.109H0v85.597h0.043      c0.031,0.593,0.08,1.183,0.15,1.771c4.914,40.231,85.094,73.844,131.633,73.844c46.541,0,126.721-33.61,131.633-73.844      c0.072-0.588,0.119-1.178,0.15-1.771h0.043V87.275H263.607z M240.031,88.659c-4.172,33.092-70.203,60.99-108.461,61.146      c-38.26,0.153-104.066-27.208-107.971-60.267c-3.904-33.061,70.203-60.99,108.463-61.147      C170.32,28.236,244.203,55.57,240.031,88.659z" fill="#FFFFFF"/>
				<path d="M131.945,58.276c-19.256,0.079-56.551,14.136-54.586,30.773c1.965,16.637,35.082,30.408,54.338,30.33      c19.254-0.078,52.485-14.118,54.586-30.772C188.383,71.955,151.199,58.198,131.945,58.276z" fill="#FFFFFF"/>
			</g>
		</g>
	</g>
</g>
<g>
</g>
<g>
</g>
<g>
</g>
<g>
</g>
<g>
</g>
<g>
</g>
<g>
</g>
<g>
</g>
<g>
</g>
<g>
</g>
<g>
</g>
<g>
</g>
<g>
</g>
<g>
</g>
<g>
</g>
</svg>
