<?xml version="1.0" encoding="iso-8859-1"?>
<!-- Generator: Adobe Illustrator 18.0.0, SVG Export Plug-In . SVG Version: 6.00 Build 0)  -->
<!DOCTYPE svg PUBLIC "-//W3C//DTD SVG 1.1//EN" "http://www.w3.org/Graphics/SVG/1.1/DTD/svg11.dtd">
<svg xmlns="http://www.w3.org/2000/svg" xmlns:xlink="http://www.w3.org/1999/xlink" version="1.1" id="Capa_1" x="0px" y="0px" viewBox="0 0 355.966 355.966" style="enable-background:new 0 0 355.966 355.966;" xml:space="preserve" width="512px" height="512px">
<g>
	<g>
		<path d="M341.064,44.276l-11.888-15.091c-2.563-3.254-7.278-3.813-10.531-1.251l-118.893,93.65l71.55-98.374    c2.437-3.35,1.696-8.04-1.653-10.477L254.112,1.434c-1.608-1.171-3.615-1.65-5.58-1.343c-1.965,0.311-3.727,1.388-4.896,2.997    L140.397,145.033H52.539c-2.191,0-5.15,1.159-6.825,4.415l-31.64,63.871c-1.838,3.712-0.32,8.211,3.392,10.05    c3.712,1.841,8.211,0.32,10.05-3.392l21.268-42.933l27.003,172.58c0.57,3.65,3.715,6.341,7.41,6.341h152.27    c3.695,0,6.84-2.69,7.41-6.341l27.002-172.579l21.268,42.932c1.838,3.711,6.336,5.232,10.049,3.392    c3.713-1.839,5.23-6.338,3.393-10.05l-31.625-63.842c-1.705-3.26-3.949-4.444-6.84-4.444h-40.857l114.547-90.225    c1.563-1.23,2.572-3.032,2.807-5.007C342.854,47.826,342.295,45.839,341.064,44.276z M251.354,17.977l3.406,2.477l-90.611,124.58    h-5.205L251.354,17.977z M229.049,340.966H89.616L67.76,201.286l18.18,37.667c1.252,2.593,3.876,4.24,6.754,4.24h133.273    c2.879,0,5.504-1.647,6.755-4.24l18.184-37.673L229.049,340.966z M254.159,160.033l-32.898,68.16H97.403l-32.898-68.16H254.159z     M201.026,145.033h-6.803L322.034,44.358l2.605,3.308L201.026,145.033z" fill="#FFFFFF"/>
		<g>
			<path d="M159.33,320.509c-14.983,0-29.186-2.616-39.992-7.366c-12.766-5.612-19.797-13.823-19.797-23.12     c0-9.297,7.031-17.508,19.797-23.12c10.807-4.751,25.01-7.367,39.992-7.367c14.984,0,29.188,2.616,39.994,7.367     c12.766,5.612,19.797,13.823,19.797,23.12c0,9.297-7.031,17.508-19.798,23.12C188.518,317.893,174.315,320.509,159.33,320.509z      M159.33,274.535c-28.98,0-44.789,10.23-44.789,15.487c0,5.256,15.81,15.486,44.789,15.486c28.98,0,44.791-10.23,44.791-15.486     C204.121,284.766,188.311,274.535,159.33,274.535z" fill="#FFFFFF"/>
		</g>
	</g>
</g>
<g>
</g>
<g>
</g>
<g>
</g>
<g>
</g>
<g>
</g>
<g>
</g>
<g>
</g>
<g>
</g>
<g>
</g>
<g>
</g>
<g>
</g>
<g>
</g>
<g>
</g>
<g>
</g>
<g>
</g>
</svg>
